<?xml version="1.0" standalone="no"?>
<!DOCTYPE svg PUBLIC "-//W3C//DTD SVG 20010904//EN"
 "http://www.w3.org/TR/2001/REC-SVG-20010904/DTD/svg10.dtd">
<svg version="1.0" xmlns="http://www.w3.org/2000/svg"
 width="640.000000pt" height="520.000000pt" viewBox="0 0 640.000000 520.000000"
 preserveAspectRatio="xMidYMid meet">

<g transform="translate(0.000000,520.000000) scale(0.100000,-0.100000)"
fill="#000000" stroke="none">
<path d="M2955 4285 c-389 -62 -717 -232 -983 -509 -734 -765 -595 -2004 291
-2596 173 -115 381 -202 596 -247 113 -24 147 -27 336 -27 222 -1 334 14 502
65 527 162 950 579 1122 1106 62 189 86 369 78 587 -23 667 -426 1247 -1052
1511 -79 33 -220 75 -324 96 -138 28 -432 35 -566 14z m420 -191 c194 -18 438
-103 620 -217 415 -259 682 -713 709 -1209 5 -81 4 -88 -14 -88 -18 0 -275
127 -371 183 l-45 26 -45 -62 c-53 -73 -114 -117 -207 -149 -56 -19 -87 -23
-187 -23 -135 1 -174 14 -230 77 -22 24 -23 27 -5 11 45 -39 108 -56 205 -56
107 0 175 18 265 70 75 44 200 163 219 210 12 29 11 36 -6 65 l-19 33 -145 1
c-120 1 -155 5 -209 24 -80 27 -162 62 -157 66 2 2 39 -7 82 -21 44 -13 81
-23 82 -21 5 5 -208 171 -267 208 -133 85 -285 146 -429 174 -103 20 -858 21
-877 2 -6 -7 -19 -69 -27 -138 l-16 -125 23 -25 c21 -23 22 -28 10 -65 -14
-44 -19 -215 -6 -215 4 0 16 16 26 35 19 35 98 115 113 115 17 0 184 -133 227
-181 87 -97 155 -286 141 -395 -8 -65 -95 -250 -171 -362 -1 -2 -35 11 -76 28
-40 17 -79 34 -87 37 -20 9 3 -31 51 -90 33 -40 38 -50 27 -63 -10 -12 -7 -20
22 -44 94 -79 221 -130 326 -130 l52 0 -11 31 c-29 85 18 178 104 204 87 26
126 20 215 -30 69 -38 107 -73 289 -261 115 -119 223 -238 240 -265 26 -41 48
-96 70 -180 5 -20 -86 -66 -217 -108 -555 -180 -1148 -32 -1550 385 -166 173
-270 347 -350 583 -21 64 -43 115 -49 113 -14 -3 -13 15 1 20 8 3 8 15 0 43
-5 22 -15 95 -21 163 -27 297 44 607 201 879 139 240 348 441 599 574 271 144
543 195 875 163z m-332 -810 c26 -9 47 -20 47 -25 0 -5 -34 -9 -76 -9 -60 0
-84 4 -110 21 -19 11 -34 25 -34 31 0 14 110 2 173 -18z m1647 -844 c0 -5 -4
-10 -10 -10 -5 0 -10 5 -10 10 0 6 5 10 10 10 6 0 10 -4 10 -10z m-35 -80 c-3
-5 -10 -10 -16 -10 -5 0 -9 5 -9 10 0 6 7 10 16 10 8 0 12 -4 9 -10z m-3015
-90 c0 -5 -2 -10 -4 -10 -3 0 -8 5 -11 10 -3 6 -1 10 4 10 6 0 11 -4 11 -10z
m1155 -90 c-3 -5 -10 -10 -16 -10 -5 0 -9 5 -9 10 0 6 7 10 16 10 8 0 12 -4 9
-10z"/>
</g>
</svg>
