<?xml version="1.0" standalone="no"?>
<!DOCTYPE svg PUBLIC "-//W3C//DTD SVG 20010904//EN"
 "http://www.w3.org/TR/2001/REC-SVG-20010904/DTD/svg10.dtd">
<svg version="1.0" xmlns="http://www.w3.org/2000/svg"
 width="5000.000000pt" height="5000.000000pt" viewBox="0 0 5000.000000 5000.000000"
 preserveAspectRatio="xMidYMid meet">

<g transform="translate(0.000000,5000.000000) scale(0.100000,-0.100000)"
fill="#000000" stroke="none">
<path d="M21733 34473 c3 -10 30 -103 61 -208 191 -641 307 -1314 345 -2005
11 -198 13 -847 3 -854 -4 -2 -26 -1 -48 4 -183 43 -581 88 -874 99 -670 26
-1327 -64 -1950 -269 -258 -85 -467 -171 -730 -301 -585 -291 -1041 -620
-1511 -1089 -409 -408 -713 -818 -992 -1335 -754 -1396 -973 -3208 -621 -5140
486 -2666 1981 -5272 3953 -6889 342 -280 706 -534 1075 -750 162 -95 415
-230 421 -225 2 2 -26 56 -61 119 -181 328 -327 748 -379 1097 -117 775 85
1554 611 2356 244 371 509 691 901 1087 112 113 203 205 203 206 0 1 -46 19
-102 39 -324 119 -601 261 -903 461 -571 379 -1047 899 -1373 1500 -234 431
-388 897 -463 1403 -35 233 -37 732 -4 976 2 17 9 71 15 120 17 127 65 369
101 505 253 955 806 1792 1571 2373 74 56 228 162 278 192 8 5 -37 -47 -99
-116 -667 -731 -1081 -1611 -1196 -2542 -36 -290 -38 -687 -5 -967 189 -1613
1255 -2996 2771 -3598 l156 -61 109 19 c201 34 335 43 583 37 312 -7 518 -40
810 -128 437 -131 910 -398 1107 -624 406 -466 893 -840 1439 -1104 333 -162
723 -295 1098 -376 147 -31 393 -75 426 -75 28 0 152 118 379 360 455 487 880
1072 1217 1678 31 57 55 105 53 107 -1 2 -30 -13 -63 -33 -128 -76 -527 -271
-675 -329 -285 -112 -477 -156 -680 -155 -219 1 -335 45 -515 197 -640 539
-1042 1288 -1141 2120 -48 406 7 982 118 1245 188 447 521 842 943 1120 239
157 583 300 885 366 109 24 152 28 340 32 154 3 259 -1 370 -12 966 -101 1808
-634 2326 -1473 35 -56 64 -106 64 -109 0 -12 -151 -257 -228 -369 -284 -415
-686 -859 -1113 -1232 -54 -47 -99 -88 -99 -89 0 -10 440 137 650 216 699 265
1294 568 1873 955 80 53 148 104 152 113 3 8 47 85 97 171 418 717 764 1151
1043 1307 36 20 108 48 160 63 115 34 191 78 270 157 146 147 229 431 180 618
-35 135 -151 299 -257 364 -137 84 -432 284 -558 378 -209 155 -370 293 -543
463 -223 220 -372 403 -494 606 -149 250 -891 1049 -1398 1505 -1069 963
-2219 1701 -3505 2250 -690 294 -1472 541 -2198 694 l-162 34 -258 259 c-357
359 -643 614 -1017 904 -812 629 -1765 1162 -2737 1528 -103 39 -193 71 -199
71 -6 0 -9 -8 -6 -17z m1338 -1911 c586 -297 1110 -654 1629 -1108 183 -161
545 -524 716 -719 137 -157 334 -397 334 -408 0 -3 -33 4 -72 14 -40 10 -161
37 -268 59 -685 140 -1308 127 -1910 -40 -58 -16 -112 -31 -121 -35 -14 -5
-17 17 -22 192 -16 510 -104 1012 -264 1508 -58 178 -156 436 -216 568 -20 42
-32 77 -28 77 5 0 104 -49 222 -108z m5717 -3793 c405 -44 778 -216 1047 -484
183 -181 222 -250 232 -402 10 -142 -39 -291 -135 -412 -83 -104 -192 -153
-347 -154 -95 -1 -156 14 -247 59 -83 42 -115 79 -180 208 -205 410 -440 802
-640 1071 -40 55 -77 106 -82 113 -9 16 211 17 352 1z"/>
</g>
</svg>
